<svg id="Ebene_1" data-name="Ebene 1" xmlns="http://www.w3.org/2000/svg" viewBox="0 0 36 41"><title>twitter-footer</title><path d="M3.76,16.79V16.66a4.71,4.71,0,0,0,2.78.8,6.15,6.15,0,0,1-3-5.38,6.27,6.27,0,0,1,.9-3.28,17.86,17.86,0,0,0,5.89,4.83,17.93,17.93,0,0,0,7.45,2,6,6,0,0,1-.19-1.48,6.23,6.23,0,0,1,1.92-4.61,6.54,6.54,0,0,1,9.34.15A13.2,13.2,0,0,0,33,8.12a6.48,6.48,0,0,1-2.85,3.59,12.59,12.59,0,0,0,3.64-1.05,11.61,11.61,0,0,1-3.3,3.4m0,0v0.81a18.12,18.12,0,0,1-1.16,6.53,20.49,20.49,0,0,1-3.46,5.94,16.63,16.63,0,0,1-5.83,4.36,18.5,18.5,0,0,1-7.91,1.67,18.2,18.2,0,0,1-10-2.91c0.49,0,1,.06,1.55.06a12.9,12.9,0,0,0,8.11-2.78A6.05,6.05,0,0,1,8,26.47a6.8,6.8,0,0,1-2.32-3.25A6.2,6.2,0,0,0,7,23.35a8.17,8.17,0,0,0,1.73-.19,6.09,6.09,0,0,1-3.61-2.29,6.18,6.18,0,0,1-1.33-4.08" fill="#5fbbe5"/><rect width="36" height="41" fill="none"/></svg>